<?xml version="1.0" encoding="utf-8"?>
<svg version="1.1" xmlns:xlink="http://www.w3.org/1999/xlink" width="144px" height="90px" xmlns="http://www.w3.org/2000/svg">
  <g transform="matrix(1 0 0 1 -1512 0 )">
    <path d="M 100.298076923077 68.2784598214286  C 102.721153846154 66.6545758928571  103.932692307692 64.6205357142857  103.932692307692 62.1763392857143  C 103.932692307692 60.2678571428571  103.774038461538 58.4765625  103.456730769231 56.8024553571429  C 103.139423076923 55.1283482142857  102.533653846154 53.4458705357143  101.639423076923 51.7550223214286  C 100.745192307692 50.0641741071429  99.6057692307692 48.6244419642857  98.2211538461538 47.4358258928571  C 96.8365384615385 46.2472098214286  94.9903846153846 45.2762276785714  92.6826923076923 44.5228794642857  C 90.375 43.76953125  87.75 43.3928571428571  84.8076923076923 43.3928571428571  C 84.4615384615385 43.5267857142857  83.4951923076923 43.8699776785714  81.9086538461538 44.4224330357143  C 80.3221153846154 44.9748883928571  79.0961538461538 45.3850446428571  78.2307692307692 45.6529017857143  C 77.3653846153846 45.9207589285714  76.1971153846154 46.2555803571429  74.7259615384615 46.6573660714286  C 73.2548076923077 47.0591517857143  71.8413461538462 47.34375  70.4855769230769 47.5111607142857  C 69.1298076923077 47.6785714285714  67.7884615384615 47.7622767857143  66.4615384615385 47.7622767857143  C 65.1346153846154 47.7622767857143  63.7932692307692 47.6785714285714  62.4375 47.5111607142857  C 61.0817307692308 47.34375  59.6682692307692 47.0591517857143  58.1971153846154 46.6573660714286  C 56.7259615384615 46.2555803571429  55.5576923076923 45.9207589285714  54.6923076923077 45.6529017857143  C 53.8269230769231 45.3850446428571  52.6009615384615 44.9748883928571  51.0144230769231 44.4224330357143  C 49.4278846153846 43.8699776785714  48.4615384615385 43.5267857142857  48.1153846153846 43.3928571428571  C 45.1730769230769 43.3928571428571  42.5480769230769 43.76953125  40.2403846153846 44.5228794642857  C 37.9326923076923 45.2762276785714  36.0865384615385 46.2472098214286  34.7019230769231 47.4358258928571  C 33.3173076923077 48.6244419642857  32.1778846153846 50.0641741071429  31.2836538461538 51.7550223214286  C 30.3894230769231 53.4458705357143  29.7836538461538 55.1283482142857  29.4663461538462 56.8024553571429  C 29.1490384615385 58.4765625  28.9903846153846 60.2678571428571  28.9903846153846 62.1763392857143  C 28.9903846153846 64.6205357142857  30.2019230769231 66.6545758928571  32.625 68.2784598214286  C 35.0480769230769 69.90234375  38.0192307692308 70.7142857142857  41.5384615384615 70  L 91.3846153846154 70  C 94.9038461538462 70.7142857142857  97.875 69.90234375  100.298076923077 68.2784598214286  Z M 82.3413461538462 41.5345982142857  C 86.7548076923077 38.9899553571429  88.9615384615385 35.9263392857143  88.9615384615385 32.34375  C 88.9615384615385 28.7276785714286  86.7548076923077 25.6473214285714  82.3413461538462 23.1026785714286  C 77.9278846153846 20.5580357142857  72.6346153846154 19.2857142857143  66.4615384615385 19.2857142857143  C 60.2884615384615 19.2857142857143  54.9951923076923 20.5580357142857  50.5817307692308 23.1026785714286  C 46.1682692307692 25.6473214285714  43.9615384615385 28.7276785714286  43.9615384615385 32.34375  C 43.9615384615385 35.9263392857143  46.1682692307692 38.9899553571429  50.5817307692308 41.5345982142857  C 54.9951923076923 44.0792410714286  60.2884615384615 45.3515625  66.4615384615385 45.3515625  C 72.6346153846154 45.3515625  77.9278846153846 44.0792410714286  82.3413461538462 41.5345982142857  Z M 143.221153846154 58.3091517857143  C 143.740384615385 58.6104910714286  144 58.9955357142857  144 59.4642857142857  L 144 69.1071428571428  C 144 69.5758928571429  143.740384615385 69.9609375  143.221153846154 70.2622767857143  C 142.701923076923 70.5636160714286  142.038461538462 70.7142857142857  141.230769230769 70.7142857142857  L 133 70.7142857142857  L 133 81.9642857142857  C 132.923076923077 84.1741071428571  131.567307692308 86.0658482142857  128.855769230769 87.6395089285714  C 126.144230769231 89.2131696428571  122.884615384615 90  119.076923076923 90  L 13.8461538461538 90  C 10.0384615384615 90  6.77884615384616 89.2131696428571  4.06730769230769 87.6395089285714  C 1.35576923076923 86.0658482142857  0 84.1741071428571  0 81.9642857142857  L 0 8.03571428571429  C 0 5.82589285714286  1.35576923076923 3.93415178571428  4.06730769230769 2.36049107142857  C 6.77884615384616 0.786830357142858  10.0384615384615 0  13.8461538461538 0  L 119.076923076923 0  C 122.884615384615 0  126.144230769231 0.786830357142858  128.855769230769 2.36049107142857  C 131.567307692308 3.93415178571428  132.923076923077 5.82589285714286  133 8.03571428571429  L 133 19.2857142857143  L 141.230769230769 19.2857142857143  C 142.038461538462 19.2857142857143  142.701923076923 19.4363839285714  143.221153846154 19.7377232142857  C 143.740384615385 20.0390625  144 20.4241071428571  144 20.8928571428571  L 144 30.5357142857143  C 144 31.0044642857143  143.740384615385 31.3895089285714  143.221153846154 31.6908482142857  C 142.701923076923 31.9921875  142.038461538462 32.1428571428571  141.230769230769 32.1428571428571  L 132.923076923077 32.1428571428571  L 132.923076923077 38.5714285714286  L 141.230769230769 38.5714285714286  C 142.038461538462 38.5714285714286  142.701923076923 38.7220982142857  143.221153846154 39.0234375  C 143.740384615385 39.3247767857143  144 39.7098214285714  144 40.1785714285714  L 144 49.8214285714286  C 144 50.2901785714286  143.740384615385 50.6752232142857  143.221153846154 50.9765625  C 142.701923076923 51.2779017857143  142.038461538462 51.4285714285714  141.230769230769 51.4285714285714  L 132.923076923077 51.4285714285714  L 132.923076923077 57.8571428571429  L 141.230769230769 57.8571428571429  C 142.038461538462 57.8571428571429  142.701923076923 58.0078125  143.221153846154 58.3091517857143  Z " fill-rule="nonzero" fill="#ffffff" stroke="none" transform="matrix(1 0 0 1 1512 0 )" />
  </g>
</svg>