<?xml version="1.0" encoding="utf-8"?>
<svg version="1.1" xmlns:xlink="http://www.w3.org/1999/xlink" width="195px" height="256px" xmlns="http://www.w3.org/2000/svg">
  <g transform="matrix(1 0 0 1 -3830 -1558 )">
    <path d="M 119.58984375 157  C 129.86328125 143.51282051282  135 127.282051282051  135 108.307692307692  C 135 89.3333333333333  129.86328125 73.1025641025641  119.58984375 59.6153846153846  C 109.31640625 46.1282051282051  96.953125 39.3846153846154  82.5 39.3846153846154  C 68.046875 39.3846153846154  55.68359375 46.1282051282051  45.41015625 59.6153846153846  C 35.13671875 73.1025641025641  30 89.3333333333333  30 108.307692307692  C 30 127.282051282051  35.13671875 143.51282051282  45.41015625 157  C 55.68359375 170.487179487179  68.046875 177.230769230769  82.5 177.230769230769  C 96.953125 177.230769230769  109.31640625 170.487179487179  119.58984375 157  Z M 190.6640625 222.461538461538  C 193.5546875 226.25641025641  195 230.871794871795  195 236.307692307692  C 195 241.641025641026  193.515625 246.25641025641  190.546875 250.153846153846  C 187.578125 254.051282051282  184.0625 256  180 256  C 175.78125 256  172.265625 254.051282051282  169.453125 250.153846153846  L 129.2578125 197.538461538462  C 115.2734375 210.25641025641  99.6875 216.615384615385  82.5 216.615384615385  C 71.328125 216.615384615385  60.64453125 213.769230769231  50.44921875 208.076923076923  C 40.25390625 202.384615384615  31.46484375 194.692307692308  24.08203125 185  C 16.69921875 175.307692307692  10.83984375 163.769230769231  6.50390625 150.384615384615  C 2.16796875 137  0 122.974358974359  0 108.307692307692  C 0 93.6410256410256  2.16796875 79.6153846153846  6.50390625 66.2307692307692  C 10.83984375 52.8461538461538  16.69921875 41.3076923076923  24.08203125 31.6153846153846  C 31.46484375 21.9230769230769  40.25390625 14.2307692307692  50.44921875 8.53846153846155  C 60.64453125 2.84615384615384  71.328125 0  82.5 0  C 93.671875 0  104.35546875 2.84615384615384  114.55078125 8.53846153846155  C 124.74609375 14.2307692307692  133.53515625 21.9230769230769  140.91796875 31.6153846153846  C 148.30078125 41.3076923076923  154.16015625 52.8461538461538  158.49609375 66.2307692307692  C 162.83203125 79.6153846153846  165 93.6410256410256  165 108.307692307692  C 165 130.871794871795  160.15625 151.333333333333  150.46875 169.692307692308  L 190.6640625 222.461538461538  Z " fill-rule="nonzero" fill="#aaaaaa" stroke="none" transform="matrix(1 0 0 1 3830 1558 )" />
  </g>
</svg>