<?xml version="1.0" encoding="utf-8"?>
<svg version="1.1" xmlns:xlink="http://www.w3.org/1999/xlink" width="349px" height="533px" xmlns="http://www.w3.org/2000/svg">
  <g transform="matrix(1 0 0 1 213 1497 )">
    <path d="M -213 -1497  L 136 -1497  L 136 -964  L -213 -964  L -213 -1497  " fill-rule="nonzero" fill="#cccccc" stroke="none" />
    <path d="M -189 -1473  L 112 -1473  L 112 -988  L -189 -988  L -189 -1473  " fill-rule="nonzero" fill="#ffffff" stroke="none" />
    <path d="M -5.34499999999998 -1364.7  C -20.003 -1364.7  -31.52 -1376.217  -31.52 -1390.875  C -31.52 -1405.533  -20.003 -1417.05  -5.34499999999998 -1417.05  C 9.31300000000002 -1417.05  20.83 -1405.533  20.83 -1390.875  C 20.83 -1376.217  9.31300000000002 -1364.7  -5.34499999999998 -1364.7  " fill-rule="nonzero" fill="#cccccc" stroke="none" />
    <path d="M -181 -997  L -181 -1254.4  L -110 -1371.4  L -10.6 -1277.8  L 46.2 -1301.2  L 103 -1277.8  L 103 -997  L -181 -997  " fill-rule="nonzero" fill="#169bd5" stroke="none" />
  </g>
</svg>