<?xml version="1.0" encoding="utf-8"?>
<svg version="1.1" xmlns:xlink="http://www.w3.org/1999/xlink" width="319px" height="406px" xmlns="http://www.w3.org/2000/svg">
  <g transform="matrix(1 0 0 1 -4100 0 )">
    <path d="M 222.188100961538 308.01171875  C 227.555889423077 300.686197916667  230.239783653846 291.510416666667  230.239783653846 280.484375  C 230.239783653846 271.875  229.888321314103 263.794270833333  229.185396634615 256.2421875  C 228.482471955128 248.690104166667  227.140524839744 241.100260416667  225.159555288462 233.47265625  C 223.17858573718 225.845052083333  220.654447115385 219.350260416667  217.587139423077 213.98828125  C 214.519831730769 208.626302083333  210.430088141026 204.24609375  205.317908653846 200.84765625  C 200.205729166667 197.44921875  194.390625 195.75  187.872596153846 195.75  C 187.105769230769 196.354166666667  184.965044070513 197.90234375  181.450420673077 200.39453125  C 177.935797275641 202.88671875  175.219951923077 204.736979166667  173.302884615385 205.9453125  C 171.385817307692 207.153645833333  168.797776442308 208.6640625  165.538762019231 210.4765625  C 162.279747596154 212.2890625  159.148537660256 213.572916666667  156.145132211538 214.328125  C 153.141726762821 215.083333333333  150.170272435897 215.4609375  147.230769230769 215.4609375  C 144.291266025641 215.4609375  141.319811698718 215.083333333333  138.31640625 214.328125  C 135.313000801282 213.572916666667  132.181790865385 212.2890625  128.922776442308 210.4765625  C 125.663762019231 208.6640625  123.075721153846 207.153645833333  121.158653846154 205.9453125  C 119.241586538462 204.736979166667  116.525741185897 202.88671875  113.011117788462 200.39453125  C 109.496494391026 197.90234375  107.355769230769 196.354166666667  106.588942307692 195.75  C 100.070913461538 195.75  94.2558092948718 197.44921875  89.1436298076923 200.84765625  C 84.0314503205128 204.24609375  79.9417067307692 208.626302083333  76.8743990384615 213.98828125  C 73.8070913461539 219.350260416667  71.282952724359 225.845052083333  69.3019831730769 233.47265625  C 67.3210136217949 241.100260416667  65.9790665064103 248.690104166667  65.2761418269231 256.2421875  C 64.5732171474359 263.794270833333  64.2217548076923 271.875  64.2217548076923 280.484375  C 64.2217548076923 291.510416666667  66.9056490384615 300.686197916667  72.2734375 308.01171875  C 77.6412259615385 315.337239583333  84.2231570512821 319  92.0192307692308 319  L 202.442307692308 319  C 210.238381410256 319  216.8203125 315.337239583333  222.188100961538 308.01171875  Z M 182.408954326923 187.3671875  C 192.185997596154 175.888020833333  197.074519230769 162.067708333333  197.074519230769 145.90625  C 197.074519230769 129.59375  192.185997596154 115.697916666667  182.408954326923 104.21875  C 172.631911057692 92.7395833333333  160.905849358974 87  147.230769230769 87  C 133.555689102564 87  121.829627403846 92.7395833333333  112.052584134615 104.21875  C 102.275540865385 115.697916666667  97.3870192307692 129.59375  97.3870192307692 145.90625  C 97.3870192307692 162.067708333333  102.275540865385 175.888020833333  112.052584134615 187.3671875  C 121.829627403846 198.846354166667  133.555689102564 204.5859375  147.230769230769 204.5859375  C 160.905849358974 204.5859375  172.631911057692 198.846354166667  182.408954326923 187.3671875  Z M 317.274639423077 263.0390625  C 318.424879807692 264.3984375  319 266.135416666667  319 268.25  L 319 311.75  C 319 313.864583333333  318.424879807692 315.6015625  317.274639423077 316.9609375  C 316.124399038462 318.3203125  314.654647435897 319  312.865384615385 319  L 294 319  L 294 369.75  C 294.461538461538 379.71875  291.458133012821 388.252604166667  285.451322115385 395.3515625  C 279.444511217949 402.450520833333  272.223557692308 406  263.788461538462 406  L 30.6730769230769 406  C 22.2379807692308 406  15.0170272435897 402.450520833333  9.01021634615385 395.3515625  C 3.00340544871795 388.252604166667  0 379.71875  0 369.75  L 0 36.25  C 0 26.28125  3.00340544871795 17.7473958333333  9.01021634615385 10.6484375  C 15.0170272435897 3.54947916666667  22.2379807692308 0  30.6730769230769 0  L 263.788461538462 0  C 272.223557692308 0  279.444511217949 3.54947916666667  285.451322115385 10.6484375  C 291.458133012821 17.7473958333333  294.461538461538 26.28125  294 36.25  L 294 87  L 312.865384615385 87  C 314.654647435897 87  316.124399038462 87.6796875  317.274639423077 89.0390625  C 318.424879807692 90.3984375  319 92.1354166666666  319 94.25  L 319 137.75  C 319 139.864583333333  318.424879807692 141.6015625  317.274639423077 142.9609375  C 316.124399038462 144.3203125  314.654647435897 145  312.865384615385 145  L 294 145  L 294 174  L 312.865384615385 174  C 314.654647435897 174  316.124399038462 174.6796875  317.274639423077 176.0390625  C 318.424879807692 177.3984375  319 179.135416666667  319 181.25  L 319 224.75  C 319 226.864583333333  318.424879807692 228.6015625  317.274639423077 229.9609375  C 316.124399038462 231.3203125  314.654647435897 232  312.865384615385 232  L 294 232  L 294 261  L 312.865384615385 261  C 314.654647435897 261  316.124399038462 261.6796875  317.274639423077 263.0390625  Z " fill-rule="nonzero" fill="#ffffff" stroke="none" transform="matrix(1 0 0 1 4100 0 )" />
  </g>
</svg>