<?xml version="1.0" encoding="utf-8"?>
<svg version="1.1" xmlns:xlink="http://www.w3.org/1999/xlink" width="48px" height="45px" xmlns="http://www.w3.org/2000/svg">
  <g transform="matrix(1 0 0 1 -404 1284 )">
    <path d="M 29.4375 27.59765625  C 31.9663461538462 25.2268629807692  33.2307692307692 22.3737980769231  33.2307692307692 19.0384615384615  C 33.2307692307692 15.703125  31.9663461538462 12.8500600961538  29.4375 10.4792668269231  C 26.9086538461538 8.1084735576923  23.8653846153846 6.92307692307692  20.3076923076923 6.92307692307692  C 16.75 6.92307692307692  13.7067307692308 8.1084735576923  11.1778846153846 10.4792668269231  C 8.64903846153846 12.8500600961538  7.38461538461539 15.703125  7.38461538461539 19.0384615384615  C 7.38461538461539 22.3737980769231  8.64903846153846 25.2268629807692  11.1778846153846 27.59765625  C 13.7067307692308 29.9684495192308  16.75 31.1538461538462  20.3076923076923 31.1538461538462  C 23.8653846153846 31.1538461538462  26.9086538461538 29.9684495192308  29.4375 27.59765625  Z M 46.9326923076923 39.1045673076923  C 47.6442307692308 39.7716346153846  48 40.5829326923077  48 41.5384615384615  C 48 42.4759615384615  47.6346153846154 43.2872596153846  46.9038461538462 43.9723557692308  C 46.1730769230769 44.6574519230769  45.3076923076923 45  44.3076923076923 45  C 43.2692307692308 45  42.4038461538462 44.6574519230769  41.7115384615385 43.9723557692308  L 31.8173076923077 34.7235576923077  C 28.375 36.9591346153846  24.5384615384615 38.0769230769231  20.3076923076923 38.0769230769231  C 17.5576923076923 38.0769230769231  14.9278846153846 37.5766225961538  12.4182692307692 36.5760216346154  C 9.90865384615385 35.5754206730769  7.74519230769231 34.2232572115385  5.92788461538462 32.51953125  C 4.11057692307692 30.8158052884615  2.66826923076923 28.7875600961538  1.60096153846154 26.4347956730769  C 0.533653846153846 24.08203125  0 21.6165865384615  0 19.0384615384615  C 0 16.4603365384615  0.533653846153846 13.9948918269231  1.60096153846154 11.6421274038462  C 2.66826923076923 9.28936298076923  4.11057692307692 7.26111778846154  5.92788461538462 5.55739182692308  C 7.74519230769231 3.85366586538462  9.90865384615385 2.50150240384615  12.4182692307692 1.50090144230769  C 14.9278846153846 0.50030048076923  17.5576923076923 0  20.3076923076923 0  C 23.0576923076923 0  25.6875 0.50030048076923  28.1971153846154 1.50090144230769  C 30.7067307692308 2.50150240384615  32.8701923076923 3.85366586538462  34.6875 5.55739182692308  C 36.5048076923077 7.26111778846154  37.9471153846154 9.28936298076923  39.0144230769231 11.6421274038462  C 40.0817307692308 13.9948918269231  40.6153846153846 16.4603365384615  40.6153846153846 19.0384615384615  C 40.6153846153846 23.0048076923077  39.4230769230769 26.6015625  37.0384615384615 29.8287259615385  L 46.9326923076923 39.1045673076923  Z " fill-rule="nonzero" fill="#d7d7d7" stroke="none" transform="matrix(1 0 0 1 404 -1284 )" />
  </g>
</svg>