<?xml version="1.0" encoding="utf-8"?>
<svg version="1.1" xmlns:xlink="http://www.w3.org/1999/xlink" width="24px" height="20px" xmlns="http://www.w3.org/2000/svg">
  <g transform="matrix(1 0 0 1 -1238 -910 )">
    <path d="M 8.68269230769231 16.9034090909091  C 9.04807692307692 17.2632575757576  9.23076923076923 17.6893939393939  9.23076923076923 18.1818181818182  C 9.23076923076923 18.6742424242424  9.04807692307692 19.1003787878788  8.68269230769231 19.4602272727273  C 8.31730769230769 19.8200757575758  7.88461538461539 20  7.38461538461539 20  C 6.88461538461539 20  6.45192307692308 19.8200757575758  6.08653846153846 19.4602272727273  C 5.72115384615385 19.1003787878788  5.53846153846154 18.6742424242424  5.53846153846154 18.1818181818182  C 5.53846153846154 17.6893939393939  5.72115384615385 17.2632575757576  6.08653846153846 16.9034090909091  C 6.45192307692308 16.5435606060606  6.88461538461539 16.3636363636364  7.38461538461539 16.3636363636364  C 7.88461538461539 16.3636363636364  8.31730769230769 16.5435606060606  8.68269230769231 16.9034090909091  Z M 21.6057692307692 16.9034090909091  C 21.9711538461538 17.2632575757576  22.1538461538462 17.6893939393939  22.1538461538462 18.1818181818182  C 22.1538461538462 18.6742424242424  21.9711538461538 19.1003787878788  21.6057692307692 19.4602272727273  C 21.2403846153846 19.8200757575758  20.8076923076923 20  20.3076923076923 20  C 19.8076923076923 20  19.375 19.8200757575758  19.0096153846154 19.4602272727273  C 18.6442307692308 19.1003787878788  18.4615384615385 18.6742424242424  18.4615384615385 18.1818181818182  C 18.4615384615385 17.6893939393939  18.6442307692308 17.2632575757576  19.0096153846154 16.9034090909091  C 19.375 16.5435606060606  19.8076923076923 16.3636363636364  20.3076923076923 16.3636363636364  C 20.8076923076923 16.3636363636364  21.2403846153846 16.5435606060606  21.6057692307692 16.9034090909091  Z M 23.7259615384615 2.08806818181818  C 23.9086538461538 2.26799242424242  24 2.4810606060606  24 2.72727272727273  L 24 10  C 24 10.2272727272727  23.9206730769231 10.4285037878788  23.7620192307692 10.6036931818182  C 23.6033653846154 10.7788825757576  23.4086538461538 10.8806818181818  23.1778846153846 10.9090909090909  L 8.12019230769231 12.6420454545455  C 8.24519230769231 13.2102272727273  8.30769230769231 13.5416666666667  8.30769230769231 13.6363636363636  C 8.30769230769231 13.7878787878788  8.19230769230769 14.0909090909091  7.96153846153846 14.5454545454545  L 21.2307692307692 14.5454545454545  C 21.4807692307692 14.5454545454545  21.6971153846154 14.6354166666667  21.8798076923077 14.8153409090909  C 22.0625 14.9952651515152  22.1538461538462 15.2083333333333  22.1538461538462 15.4545454545455  C 22.1538461538462 15.7007575757576  22.0625 15.9138257575758  21.8798076923077 16.09375  C 21.6971153846154 16.2736742424242  21.4807692307692 16.3636363636364  21.2307692307692 16  L 6.46153846153846 16  C 6.21153846153846 16.3636363636364  5.99519230769231 16.2736742424242  5.8125 16.09375  C 5.62980769230769 15.9138257575758  5.53846153846154 15.7007575757576  5.53846153846154 15.4545454545455  C 5.53846153846154 15.3503787878788  5.57692307692308 15.2012310606061  5.65384615384615 15.0071022727273  C 5.73076923076923 14.8129734848485  5.80769230769231 14.6425189393939  5.88461538461538 14.4957386363636  C 5.96153846153846 14.3489583333333  6.06490384615385 14.1595643939394  6.19471153846154 13.9275568181818  C 6.32451923076923 13.6955492424242  6.39903846153846 13.5558712121212  6.41826923076923 13.5085227272727  L 3.86538461538462 1.81818181818182  L 0.923076923076923 1.81818181818182  C 0.673076923076923 1.81818181818182  0.456730769230769 1.7282196969697  0.274038461538462 1.54829545454545  C 0.0913461538461538 1.36837121212121  0 1.15530303030303  0 0.909090909090908  C 0 0.662878787878787  0.0913461538461538 0.449810606060603  0.274038461538462 0.269886363636365  C 0.456730769230769 0.0899621212121193  0.673076923076923 0  0.923076923076923 0  L 4.61538461538462 0  C 4.76923076923077 0  4.90625 0.0307765151515138  5.02644230769231 0.0923295454545459  C 5.14663461538462 0.153882575757576  5.24038461538462 0.227272727272727  5.30769230769231 0.3125  C 5.375 0.397727272727273  5.4375 0.513731060606057  5.49519230769231 0.660511363636365  C 5.55288461538462 0.807291666666665  5.59134615384616 0.930397727272727  5.61057692307692 1.02982954545455  C 5.62980769230769 1.12926136363636  5.65625 1.26893939393939  5.68990384615385 1.44886363636364  C 5.72355769230769 1.62878787878788  5.74519230769231 1.75189393939394  5.75480769230769 2  L 23.0769230769231 2  C 23.3269230769231 1.81818181818182  23.5432692307692 1.90814393939394  23.7259615384615 2.08806818181818  Z " fill-rule="nonzero" fill="#8c8c8c" stroke="none" transform="matrix(1 0 0 1 1238 910 )" />
  </g>
</svg>