<?xml version="1.0" encoding="utf-8"?>
<svg version="1.1" xmlns:xlink="http://www.w3.org/1999/xlink" width="300px" height="80px" xmlns="http://www.w3.org/2000/svg">
  <g transform="matrix(1 0 0 1 -599 -1313 )">
    <path d="M 867.172291236 1313.5  C 867.172291236 1313.5  870.758346357753 1313.9781406829  870.758346357753 1313.9781406829  C 870.758346357753 1313.9781406829  898.442773575966 1353  898.442773575966 1353  C 898.442773575966 1353  870.758346357753 1392.0218593171  870.758346357753 1392.0218593171  C 870.758346357753 1392.0218593171  867.172291236 1392.5  867.172291236 1392.5  C 867.172291236 1392.5  599.5 1392.5  599.5 1392.5  C 599.5 1392.5  599.5 1313.5  599.5 1313.5  C 599.5 1313.5  867.172291236 1313.5  867.172291236 1313.5  Z " fill-rule="nonzero" fill="#169bd5" stroke="none" />
    <path d="M 867.172291236 1313.5  C 867.172291236 1313.5  870.758346357753 1313.9781406829  870.758346357753 1313.9781406829  C 870.758346357753 1313.9781406829  898.442773575966 1353  898.442773575966 1353  C 898.442773575966 1353  870.758346357753 1392.0218593171  870.758346357753 1392.0218593171  C 870.758346357753 1392.0218593171  867.172291236 1392.5  867.172291236 1392.5  C 867.172291236 1392.5  599.5 1392.5  599.5 1392.5  C 599.5 1392.5  599.5 1313.5  599.5 1313.5  C 599.5 1313.5  867.172291236 1313.5  867.172291236 1313.5  Z " stroke-width="1" stroke="#169bd5" fill="none" />
  </g>
</svg>