<?xml version="1.0" encoding="utf-8"?>
<svg version="1.1" xmlns:xlink="http://www.w3.org/1999/xlink" width="110px" height="86px" xmlns="http://www.w3.org/2000/svg">
  <g transform="matrix(1 0 0 1 -2160 0 )">
    <path d="M 76.6165865384615 65.2438616071429  C 78.4675480769231 63.692150297619  79.3930288461539 61.7485119047619  79.3930288461539 59.4129464285714  C 79.3930288461539 57.5892857142857  79.2718349358974 55.8776041666667  79.0294471153846 54.2779017857143  C 78.7870592948718 52.6781994047619  78.3243189102564 51.0704985119048  77.6412259615385 49.4547991071429  C 76.9581330128205 47.8390997023809  76.0877403846154 46.4633556547619  75.0300480769231 45.3275669642857  C 73.9723557692308 44.1917782738095  72.5620993589744 43.2639508928571  70.7992788461539 42.5440848214286  C 69.0364583333333 41.82421875  67.03125 41.4642857142857  64.7836538461539 41.4642857142857  C 64.5192307692308 41.5922619047619  63.7810496794872 41.9202008928571  62.5691105769231 42.4481026785714  C 61.357171474359 42.9760044642857  60.4206730769231 43.367931547619  59.7596153846154 43.6238839285714  C 59.0985576923077 43.8798363095238  58.2061298076923 44.1997767857143  57.0823317307692 44.5837053571429  C 55.9585336538462 44.9676339285714  54.8788060897436 45.2395833333333  53.8431490384615 45.3995535714286  C 52.8074919871795 45.5595238095238  51.7828525641026 45.6395089285714  50.7692307692308 45.6395089285714  C 49.755608974359 45.6395089285714  48.7309695512821 45.5595238095238  47.6953125 45.3995535714286  C 46.6596554487179 45.2395833333333  45.5799278846154 44.9676339285714  44.4561298076923 44.5837053571429  C 43.3323317307692 44.1997767857143  42.4399038461538 43.8798363095238  41.7788461538462 43.6238839285714  C 41.1177884615385 43.367931547619  40.1812900641026 42.9760044642857  38.9693509615385 42.4481026785714  C 37.7574118589744 41.9202008928571  37.0192307692308 41.5922619047619  36.7548076923077 41.4642857142857  C 34.5072115384615 41.4642857142857  32.5020032051282 41.82421875  30.7391826923077 42.5440848214286  C 28.9763621794872 43.2639508928571  27.5661057692308 44.1917782738095  26.5084134615385 45.3275669642857  C 25.4507211538462 46.4633556547619  24.580328525641 47.8390997023809  23.8972355769231 49.4547991071429  C 23.2141426282051 51.0704985119048  22.7514022435897 52.6781994047619  22.5090144230769 54.2779017857143  C 22.2666266025641 55.8776041666667  22.1454326923077 57.5892857142857  22.1454326923077 59.4129464285714  C 22.1454326923077 61.7485119047619  23.0709134615385 63.692150297619  24.921875 65.2438616071429  C 26.7728365384615 66.7955729166667  29.0424679487179 67.5714285714286  31.7307692307692 67  L 69.8076923076923 67  C 72.4959935897436 67.5714285714286  74.765625 66.7955729166667  76.6165865384615 65.2438616071429  Z M 62.8996394230769 39.6886160714286  C 66.2710336538461 37.2570684523809  67.9567307692308 34.3296130952381  67.9567307692308 30.90625  C 67.9567307692308 27.4508928571429  66.2710336538461 24.5074404761905  62.8996394230769 22.0758928571429  C 59.5282451923077 19.6443452380952  55.4847756410256 18.4285714285714  50.7692307692308 18.4285714285714  C 46.0536858974359 18.4285714285714  42.0102163461538 19.6443452380952  38.6388221153846 22.0758928571429  C 35.2674278846154 24.5074404761905  33.5817307692308 27.4508928571429  33.5817307692308 30.90625  C 33.5817307692308 34.3296130952381  35.2674278846154 37.2570684523809  38.6388221153846 39.6886160714286  C 42.0102163461538 42.1201636904762  46.0536858974359 43.3359375  50.7692307692308 43.3359375  C 55.4847756410256 43.3359375  59.5282451923077 42.1201636904762  62.8996394230769 39.6886160714286  Z M 109.405048076923 55.7176339285714  C 109.801682692308 56.0055803571429  110 56.3735119047619  110 56.8214285714286  L 110 66.0357142857143  C 110 66.4836309523809  109.801682692308 66.8515625  109.405048076923 67.1395089285714  C 109.008413461538 67.4274553571429  108.501602564103 67.5714285714286  107.884615384615 67.5714285714286  L 101 67.5714285714286  L 101 78.3214285714286  C 101.538461538462 80.4330357142857  100.502804487179 82.2406994047619  98.4314903846154 83.7444196428571  C 96.3601762820513 85.2481398809524  93.8701923076923 86  90.9615384615385 86  L 10.5769230769231 86  C 7.66826923076923 86  5.17828525641026 85.2481398809524  3.10697115384615 83.7444196428571  C 1.03565705128205 82.2406994047619  0 80.4330357142857  0 78.3214285714286  L 0 7.67857142857143  C 0 5.56696428571429  1.03565705128205 3.75930059523809  3.10697115384615 2.25558035714286  C 5.17828525641026 0.75186011904762  7.66826923076923 0  10.5769230769231 0  L 90.9615384615385 0  C 93.8701923076923 0  96.3601762820513 0.75186011904762  98.4314903846154 2.25558035714286  C 100.502804487179 3.75930059523809  101.538461538462 5.56696428571429  101 7.67857142857143  L 101 18.4285714285714  L 107.884615384615 18.4285714285714  C 108.501602564103 18.4285714285714  109.008413461538 18.5725446428571  109.405048076923 18.8604910714286  C 109.801682692308 19.1484375  110 19.516369047619  110 19.9642857142857  L 110 29.1785714285714  C 110 29.6264880952381  109.801682692308 29.9944196428571  109.405048076923 30.2823660714286  C 109.008413461538 30.5703125  108.501602564103 30.7142857142857  107.884615384615 30.7142857142857  L 101.538461538462 30.7142857142857  L 101.538461538462 36.8571428571429  L 107.884615384615 36.8571428571429  C 108.501602564103 36.8571428571429  109.008413461538 37.0011160714286  109.405048076923 37.2890625  C 109.801682692308 37.5770089285714  110 37.9449404761905  110 38.3928571428571  L 110 47.6071428571429  C 110 48.0550595238095  109.801682692308 48.4229910714286  109.405048076923 48.7109375  C 109.008413461538 48.9988839285714  108.501602564103 49.1428571428571  107.884615384615 49.1428571428571  L 101.538461538462 49.1428571428571  L 101.538461538462 55.2857142857143  L 107.884615384615 55.2857142857143  C 108.501602564103 55.2857142857143  109.008413461538 55.4296875  109.405048076923 55.7176339285714  Z " fill-rule="nonzero" fill="#ffffff" stroke="none" transform="matrix(1 0 0 1 2160 0 )" />
  </g>
</svg>