<?xml version="1.0" encoding="utf-8"?>
<svg version="1.1" xmlns:xlink="http://www.w3.org/1999/xlink" width="19px" height="38px" xmlns="http://www.w3.org/2000/svg">
  <g transform="matrix(1 0 0 1 -294 -363 )">
    <path d="M 18.6735395189003 2.28456913827655  C 18.8911798396335 2.53841015364061  19 2.83032732130928  19 3.16032064128257  C 19 3.49031396125584  18.8911798396335 3.78223112892451  18.6735395189003 4.03607214428858  L 5.84364261168385 19  L 18.6735395189003 33.9639278557114  C 18.8911798396335 34.2177688710755  19 34.5096860387442  19 34.8396793587174  C 19 35.1696726786907  18.8911798396335 35.4615898463594  18.6735395189003 35.7154308617234  L 17.0412371134021 37.6192384769539  C 16.823596792669 37.873079492318  16.5733104238259 38  16.2903780068729 38  C 16.0074455899198 38  15.7571592210767 37.873079492318  15.5395189003436 37.6192384769539  L 0.326460481099656 19.875751503006  C 0.108820160366552 19.6219104876419  0 19.3299933199733  0 19  C 0 18.6700066800267  0.108820160366552 18.378089512358  0.326460481099656 18.124248496994  L 15.5395189003436 0.380761523046093  C 15.7571592210767 0.126920507682029  16.0074455899198 0  16.2903780068729 0  C 16.5733104238259 0  16.823596792669 0.126920507682029  17.0412371134021 0.380761523046093  L 18.6735395189003 2.28456913827655  Z " fill-rule="nonzero" fill="#8c8c8c" stroke="none" transform="matrix(1 0 0 1 294 363 )" />
  </g>
</svg>