<?xml version="1.0" encoding="utf-8"?>
<svg version="1.1" xmlns:xlink="http://www.w3.org/1999/xlink" width="19px" height="38px" xmlns="http://www.w3.org/2000/svg">
  <g transform="matrix(1 0 0 1 -1105 -363 )">
    <path d="M 18.6735395189003 18.124248496994  C 18.8911798396335 18.378089512358  19 18.6700066800267  19 19  C 19 19.3299933199733  18.8911798396335 19.6219104876419  18.6735395189003 19.875751503006  L 3.46048109965636 37.6192384769539  C 3.24284077892325 37.873079492318  2.99255441008018 38  2.70962199312715 38  C 2.42668957617411 38  2.17640320733104 37.873079492318  1.95876288659794 37.6192384769539  L 0.326460481099656 35.7154308617234  C 0.108820160366552 35.4615898463594  0 35.1696726786907  0 34.8396793587174  C 0 34.5096860387442  0.108820160366552 34.2177688710755  0.326460481099656 33.9639278557114  L 13.1563573883162 19  L 0.326460481099656 4.03607214428858  C 0.108820160366552 3.78223112892451  0 3.49031396125584  0 3.16032064128257  C 0 2.83032732130928  0.108820160366552 2.53841015364061  0.326460481099656 2.28456913827655  L 1.95876288659794 0.380761523046093  C 2.17640320733104 0.126920507682029  2.42668957617411 0  2.70962199312715 0  C 2.99255441008018 0  3.24284077892325 0.126920507682029  3.46048109965636 0.380761523046093  L 18.6735395189003 18.124248496994  Z " fill-rule="nonzero" fill="#8c8c8c" stroke="none" transform="matrix(1 0 0 1 1105 363 )" />
  </g>
</svg>