<?xml version="1.0" encoding="utf-8"?>
<svg version="1.1" xmlns:xlink="http://www.w3.org/1999/xlink" width="57px" height="31px" xmlns="http://www.w3.org/2000/svg">
  <g transform="matrix(1 0 0 1 -734 -134 )">
    <path d="M 34.95703125 19.01171875  C 37.9600360576923 17.3785056089744  39.4615384615385 15.4130608974359  39.4615384615385 13.1153846153846  C 39.4615384615385 10.8177083333333  37.9600360576923 8.85226362179487  34.95703125 7.21905048076923  C 31.9540264423077 5.58583733974359  28.3401442307692 4.76923076923077  24.1153846153846 4.76923076923077  C 19.890625 4.76923076923077  16.2767427884615 5.58583733974359  13.2737379807692 7.21905048076923  C 10.2707331730769 8.85226362179487  8.76923076923077 10.8177083333333  8.76923076923077 13.1153846153846  C 8.76923076923077 15.4130608974359  10.2707331730769 17.3785056089744  13.2737379807692 19.01171875  C 16.2767427884615 20.6449318910256  19.890625 21.4615384615385  24.1153846153846 21.4615384615385  C 28.3401442307692 21.4615384615385  31.9540264423077 20.6449318910256  34.95703125 19.01171875  Z M 55.7325721153846 26.9387019230769  C 56.5775240384615 27.3982371794872  57 27.9571314102564  57 28.6153846153846  C 57 29.261217948718  56.5661057692308 29.8201121794872  55.6983173076923 30.2920673076923  C 54.8305288461539 30.7640224358974  53.8028846153846 31  52.6153846153846 31  C 51.3822115384615 31  50.3545673076923 30.7640224358974  49.5324519230769 30.2920673076923  L 37.7830528846154 23.9206730769231  C 33.6953125 25.4607371794872  29.1394230769231 26.2307692307692  24.1153846153846 26.2307692307692  C 20.8497596153846 26.2307692307692  17.7268629807692 25.8861177884615  14.7466947115385 25.1968149038462  C 11.7665264423077 24.5075120192308  9.19741586538462 23.5760216346154  7.03936298076923 22.40234375  C 4.88131009615385 21.2286658653846  3.16856971153846 19.8314302884615  1.90114182692308 18.2106370192308  C 0.633713942307692 16.58984375  0 14.8914262820513  0 13.1153846153846  C 0 11.3393429487179  0.633713942307692 9.64092548076923  1.90114182692308 8.02013221153846  C 3.16856971153846 6.39933894230769  4.88131009615385 5.00210336538462  7.03936298076923 3.82842548076923  C 9.19741586538462 2.65474759615385  11.7665264423077 1.72325721153846  14.7466947115385 1.03395432692308  C 17.7268629807692 0.344651442307692  20.8497596153846 0  24.1153846153846 0  C 27.3810096153846 0  30.50390625 0.344651442307692  33.4840745192308 1.03395432692308  C 36.4642427884615 1.72325721153846  39.0333533653846 2.65474759615385  41.19140625 3.82842548076923  C 43.3494591346154 5.00210336538462  45.0621995192308 6.39933894230769  46.3296274038462 8.02013221153846  C 47.5970552884615 9.64092548076923  48.2307692307692 11.3393429487179  48.2307692307692 13.1153846153846  C 48.2307692307692 15.8477564102564  46.8149038461539 18.3255208333333  43.9831730769231 20.5486778846154  L 55.7325721153846 26.9387019230769  Z " fill-rule="nonzero" fill="#aaaaaa" stroke="none" transform="matrix(1 0 0 1 734 134 )" />
  </g>
</svg>