<?xml version="1.0" encoding="utf-8"?>
<svg version="1.1" xmlns:xlink="http://www.w3.org/1999/xlink" width="107px" height="90px" xmlns="http://www.w3.org/2000/svg">
  <g transform="matrix(1 0 0 1 -1141 0 )">
    <path d="M 74.5270432692308 68.2784598214286  C 76.3275240384615 66.6545758928571  77.2277644230769 64.6205357142857  77.2277644230769 62.1763392857143  C 77.2277644230769 60.2678571428571  77.1098758012821 58.4765625  76.8740985576923 56.8024553571429  C 76.6383213141026 55.1283482142857  76.1882011217949 53.4458705357143  75.5237379807692 51.7550223214286  C 74.8592748397436 50.0641741071429  74.0126201923077 48.6244419642857  72.9837740384615 47.4358258928571  C 71.9549278846154 46.2472098214286  70.5831330128205 45.2762276785714  68.8683894230769 44.5228794642857  C 67.1536458333333 43.76953125  65.203125 43.3928571428571  63.0168269230769 43.3928571428571  C 62.7596153846154 43.5267857142857  62.0415665064103 43.8699776785714  60.8626802884615 44.4224330357143  C 59.6837940705128 44.9748883928571  58.7728365384615 45.3850446428571  58.1298076923077 45.6529017857143  C 57.4867788461538 45.9207589285714  56.6186899038462 46.2555803571429  55.5255408653846 46.6573660714286  C 54.4323918269231 47.0591517857143  53.3821113782051 47.34375  52.3746995192308 47.5111607142857  C 51.3672876602564 47.6785714285714  50.370592948718 47.7622767857143  49.3846153846154 47.7622767857143  C 48.3986378205128 47.7622767857143  47.4019431089744 47.6785714285714  46.39453125 47.5111607142857  C 45.3871193910256 47.34375  44.3368389423077 47.0591517857143  43.2436899038462 46.6573660714286  C 42.1505408653846 46.2555803571429  41.2824519230769 45.9207589285714  40.6394230769231 45.6529017857143  C 39.9963942307692 45.3850446428571  39.085436698718 44.9748883928571  37.9065504807692 44.4224330357143  C 36.7276642628205 43.8699776785714  36.0096153846154 43.5267857142857  35.7524038461538 43.3928571428571  C 33.5661057692308 43.3928571428571  31.6155849358974 43.76953125  29.9008413461538 44.5228794642857  C 28.1860977564103 45.2762276785714  26.8143028846154 46.2472098214286  25.7854567307692 47.4358258928571  C 24.7566105769231 48.6244419642857  23.9099559294872 50.0641741071429  23.2454927884615 51.7550223214286  C 22.5810296474359 53.4458705357143  22.1309094551282 55.1283482142857  21.8951322115385 56.8024553571429  C 21.6593549679487 58.4765625  21.5414663461538 60.2678571428571  21.5414663461538 62.1763392857143  C 21.5414663461538 64.6205357142857  22.4417067307692 66.6545758928571  24.2421875 68.2784598214286  C 26.0426682692308 69.90234375  28.2504006410256 70.7142857142857  30.8653846153846 70  L 67.9038461538461 70  C 70.5188301282051 70.7142857142857  72.7265625 69.90234375  74.5270432692308 68.2784598214286  Z M 61.1841947115385 41.5345982142857  C 64.4636418269231 38.9899553571429  66.1033653846154 35.9263392857143  66.1033653846154 32.34375  C 66.1033653846154 28.7276785714286  64.4636418269231 25.6473214285714  61.1841947115385 23.1026785714286  C 57.9047475961538 20.5580357142857  53.9715544871795 19.2857142857143  49.3846153846154 19.2857142857143  C 44.7976762820513 19.2857142857143  40.8644831730769 20.5580357142857  37.5850360576923 23.1026785714286  C 34.3055889423077 25.6473214285714  32.6658653846154 28.7276785714286  32.6658653846154 32.34375  C 32.6658653846154 35.9263392857143  34.3055889423077 38.9899553571429  37.5850360576923 41.5345982142857  C 40.8644831730769 44.0792410714286  44.7976762820513 45.3515625  49.3846153846154 45.3515625  C 53.9715544871795 45.3515625  57.9047475961538 44.0792410714286  61.1841947115385 41.5345982142857  Z M 106.421274038462 58.3091517857143  C 106.807091346154 58.6104910714286  107 58.9955357142857  107 59.4642857142857  L 107 69.1071428571428  C 107 69.5758928571429  106.807091346154 69.9609375  106.421274038462 70.2622767857143  C 106.035456730769 70.5636160714286  105.542467948718 70.7142857142857  104.942307692308 70.7142857142857  L 98 70.7142857142857  L 98 81.9642857142857  C 98.7692307692308 84.1741071428571  97.7618189102564 86.0658482142857  95.7469951923077 87.6395089285714  C 93.732171474359 89.2131696428571  91.3100961538461 90  88.4807692307692 90  L 10.2884615384615 90  C 7.45913461538462 90  5.0370592948718 89.2131696428571  3.02223557692308 87.6395089285714  C 1.00741185897436 86.0658482142857  0 84.1741071428571  0 81.9642857142857  L 0 8.03571428571429  C 0 5.82589285714286  1.00741185897436 3.93415178571428  3.02223557692308 2.36049107142857  C 5.0370592948718 0.786830357142858  7.45913461538462 0  10.2884615384615 0  L 88.4807692307692 0  C 91.3100961538461 0  93.732171474359 0.786830357142858  95.7469951923077 2.36049107142857  C 97.7618189102564 3.93415178571428  98.7692307692308 5.82589285714286  98 8.03571428571429  L 98 19.2857142857143  L 104.942307692308 19.2857142857143  C 105.542467948718 19.2857142857143  106.035456730769 19.4363839285714  106.421274038462 19.7377232142857  C 106.807091346154 20.0390625  107 20.4241071428571  107 20.8928571428571  L 107 30.5357142857143  C 107 31.0044642857143  106.807091346154 31.3895089285714  106.421274038462 31.6908482142857  C 106.035456730769 31.9921875  105.542467948718 32.1428571428571  104.942307692308 32.1428571428571  L 98.7692307692308 32.1428571428571  L 98.7692307692308 38.5714285714286  L 104.942307692308 38.5714285714286  C 105.542467948718 38.5714285714286  106.035456730769 38.7220982142857  106.421274038462 39.0234375  C 106.807091346154 39.3247767857143  107 39.7098214285714  107 40.1785714285714  L 107 49.8214285714286  C 107 50.2901785714286  106.807091346154 50.6752232142857  106.421274038462 50.9765625  C 106.035456730769 51.2779017857143  105.542467948718 51.4285714285714  104.942307692308 51.4285714285714  L 98.7692307692308 51.4285714285714  L 98.7692307692308 57.8571428571429  L 104.942307692308 57.8571428571429  C 105.542467948718 57.8571428571429  106.035456730769 58.0078125  106.421274038462 58.3091517857143  Z " fill-rule="nonzero" fill="#ffffff" stroke="none" transform="matrix(1 0 0 1 1141 0 )" />
  </g>
</svg>