<?xml version="1.0" encoding="utf-8"?>
<svg version="1.1" xmlns:xlink="http://www.w3.org/1999/xlink" width="53px" height="31px" xmlns="http://www.w3.org/2000/svg">
  <g transform="matrix(1 0 0 1 -738 -134 )">
    <path d="M 32.50390625 19.01171875  C 35.2961738782051 17.3785056089744  36.6923076923077 15.4130608974359  36.6923076923077 13.1153846153846  C 36.6923076923077 10.8177083333333  35.2961738782051 8.85226362179487  32.50390625 7.21905048076923  C 29.7116386217949 5.58583733974359  26.3513621794872 4.76923076923077  22.4230769230769 4.76923076923077  C 18.4947916666667 4.76923076923077  15.134515224359 5.58583733974359  12.3422475961538 7.21905048076923  C 9.54997996794872 8.85226362179487  8.15384615384616 10.8177083333333  8.15384615384616 13.1153846153846  C 8.15384615384616 15.4130608974359  9.54997996794872 17.3785056089744  12.3422475961538 19.01171875  C 15.134515224359 20.6449318910256  18.4947916666667 21.4615384615385  22.4230769230769 21.4615384615385  C 26.3513621794872 21.4615384615385  29.7116386217949 20.6449318910256  32.50390625 19.01171875  Z M 51.8215144230769 26.9387019230769  C 52.607171474359 27.3982371794872  53 27.9571314102564  53 28.6153846153846  C 53 29.261217948718  52.5965544871795 29.8201121794872  51.7896634615385 30.2920673076923  C 50.9827724358974 30.7640224358974  50.0272435897436 31  48.9230769230769 31  C 47.7764423076923 31  46.8209134615385 30.7640224358974  46.0564903846154 30.2920673076923  L 35.1316105769231 23.9206730769231  C 31.3307291666667 25.4607371794872  27.0945512820513 26.2307692307692  22.4230769230769 26.2307692307692  C 19.3866185897436 26.2307692307692  16.4828725961538 25.8861177884615  13.7118389423077 25.1968149038462  C 10.9408052884615 24.5075120192308  8.55198317307692 23.5760216346154  6.54537259615385 22.40234375  C 4.53876201923077 21.2286658653846  2.94621394230769 19.8314302884615  1.76772836538462 18.2106370192308  C 0.589242788461538 16.58984375  0 14.8914262820513  0 13.1153846153846  C 0 11.3393429487179  0.589242788461538 9.64092548076923  1.76772836538462 8.02013221153846  C 2.94621394230769 6.39933894230769  4.53876201923077 5.00210336538462  6.54537259615385 3.82842548076923  C 8.55198317307692 2.65474759615385  10.9408052884615 1.72325721153846  13.7118389423077 1.03395432692308  C 16.4828725961538 0.344651442307692  19.3866185897436 0  22.4230769230769 0  C 25.4595352564103 0  28.36328125 0.344651442307692  31.1343149038462 1.03395432692308  C 33.9053485576923 1.72325721153846  36.2941706730769 2.65474759615385  38.30078125 3.82842548076923  C 40.3073918269231 5.00210336538462  41.8999399038462 6.39933894230769  43.0784254807692 8.02013221153846  C 44.2569110576923 9.64092548076923  44.8461538461538 11.3393429487179  44.8461538461538 13.1153846153846  C 44.8461538461538 15.8477564102564  43.5296474358974 18.3255208333333  40.8966346153846 20.5486778846154  L 51.8215144230769 26.9387019230769  Z " fill-rule="nonzero" fill="#aaaaaa" stroke="none" transform="matrix(1 0 0 1 738 134 )" />
  </g>
</svg>