<?xml version="1.0" encoding="utf-8"?>
<svg version="1.1" xmlns:xlink="http://www.w3.org/1999/xlink" width="77px" height="87px" xmlns="http://www.w3.org/2000/svg">
  <g transform="matrix(1 0 0 1 -1022 0 )">
    <path d="M 53.6316105769231 66.0025111607143  C 54.9272836538462 64.4327566964286  55.5751201923077 62.4665178571429  55.5751201923077 60.1037946428571  C 55.5751201923077 58.2589285714286  55.4902844551282 56.52734375  55.3206129807692 54.9090401785714  C 55.1509415064103 53.2907366071429  54.8270232371795 51.6643415178571  54.3488581730769 50.0298549107143  C 53.8706931089744 48.3953683035714  53.2614182692308 47.0036272321429  52.5210336538462 45.8546316964286  C 51.7806490384615 44.7056361607143  50.7934695512821 43.7670200892857  49.5594951923077 43.0387834821429  C 48.3255208333333 42.310546875  46.921875 41.9464285714286  45.3485576923077 41.9464285714286  C 45.1634615384615 42.0758928571429  44.646734775641 42.4076450892857  43.7983774038462 42.9416852678571  C 42.9500200320513 43.4757254464286  42.2944711538462 43.8722098214286  41.8317307692308 44.1311383928571  C 41.3689903846154 44.3900669642857  40.7442908653846 44.7137276785714  39.9576322115385 45.1021205357143  C 39.1709735576923 45.4905133928571  38.4151642628205 45.765625  37.6902043269231 45.9274553571429  C 36.9652443910256 46.0892857142857  36.2479967948718 46.1702008928571  35.5384615384615 46.1702008928571  C 34.8289262820513 46.1702008928571  34.1116786858974 46.0892857142857  33.38671875 45.9274553571429  C 32.6617588141026 45.765625  31.9059495192308 45.4905133928571  31.1192908653846 45.1021205357143  C 30.3326322115385 44.7137276785714  29.7079326923077 44.3900669642857  29.2451923076923 44.1311383928571  C 28.7824519230769 43.8722098214286  28.1269030448718 43.4757254464286  27.2785456730769 42.9416852678571  C 26.4301883012821 42.4076450892857  25.9134615384615 42.0758928571429  25.7283653846154 41.9464285714286  C 24.1550480769231 41.9464285714286  22.7514022435897 42.310546875  21.5174278846154 43.0387834821429  C 20.283453525641 43.7670200892857  19.2962740384615 44.7056361607143  18.5558894230769 45.8546316964286  C 17.8155048076923 47.0036272321429  17.2062299679487 48.3953683035714  16.7280649038462 50.0298549107143  C 16.2498998397436 51.6643415178571  15.9259815705128 53.2907366071429  15.7563100961538 54.9090401785714  C 15.5866386217949 56.52734375  15.5018028846154 58.2589285714286  15.5018028846154 60.1037946428571  C 15.5018028846154 62.4665178571429  16.1496394230769 64.4327566964286  17.4453125 66.0025111607143  C 18.7409855769231 67.572265625  20.3297275641026 68.3571428571429  22.2115384615385 68  L 48.8653846153846 68  C 50.7471955128205 68.3571428571429  52.3359375 67.572265625  53.6316105769231 66.0025111607143  Z M 44.0297475961538 40.1501116071429  C 46.3897235576923 37.6902901785714  47.5697115384615 34.7287946428571  47.5697115384615 31.265625  C 47.5697115384615 27.7700892857143  46.3897235576923 24.7924107142857  44.0297475961538 22.3325892857143  C 41.6697716346154 19.8727678571429  38.8393429487179 18.6428571428571  35.5384615384615 18.6428571428571  C 32.2375801282051 18.6428571428571  29.4071514423077 19.8727678571429  27.0471754807692 22.3325892857143  C 24.6871995192308 24.7924107142857  23.5072115384615 27.7700892857143  23.5072115384615 31.265625  C 23.5072115384615 34.7287946428571  24.6871995192308 37.6902901785714  27.0471754807692 40.1501116071429  C 29.4071514423077 42.6099330357143  32.2375801282051 43.83984375  35.5384615384615 43.83984375  C 38.8393429487179 43.83984375  41.6697716346154 42.6099330357143  44.0297475961538 40.1501116071429  Z M 76.5835336538461 56.3655133928571  C 76.8611778846154 56.6568080357143  77 57.0290178571429  77 57.4821428571429  L 77 66.8035714285714  C 77 67.2566964285714  76.8611778846154 67.62890625  76.5835336538461 67.9202008928571  C 76.3058894230769 68.2114955357143  75.9511217948718 68.3571428571429  75.5192307692308 68.3571428571429  L 71 68.3571428571429  L 71 79.2321428571429  C 71.0769230769231 81.3683035714286  70.3519631410256 83.1969866071429  68.9020432692308 84.7181919642857  C 67.4521233974359 86.2393973214286  65.7091346153846 87  63.6730769230769 87  L 7.40384615384615 87  C 5.36778846153846 87  3.62479967948718 86.2393973214286  2.17487980769231 84.7181919642857  C 0.724959935897436 83.1969866071429  0 81.3683035714286  0 79.2321428571429  L 0 7.76785714285714  C 0 5.63169642857143  0.724959935897436 3.80301339285714  2.17487980769231 2.28180803571429  C 3.62479967948718 0.760602678571429  5.36778846153846 0  7.40384615384615 0  L 63.6730769230769 0  C 65.7091346153846 0  67.4521233974359 0.760602678571429  68.9020432692308 2.28180803571429  C 70.3519631410256 3.80301339285714  71.0769230769231 5.63169642857143  71 7.76785714285714  L 71 18.6428571428571  L 75.5192307692308 18.6428571428571  C 75.9511217948718 18.6428571428571  76.3058894230769 18.7885044642857  76.5835336538461 19.0797991071429  C 76.8611778846154 19.37109375  77 19.7433035714286  77 20.1964285714286  L 77 29.5178571428571  C 77 29.9709821428571  76.8611778846154 30.3431919642857  76.5835336538461 30.6344866071429  C 76.3058894230769 30.92578125  75.9511217948718 31.0714285714286  75.5192307692308 31.0714285714286  L 71.0769230769231 31.0714285714286  L 71.0769230769231 37.2857142857143  L 75.5192307692308 37.2857142857143  C 75.9511217948718 37.2857142857143  76.3058894230769 37.4313616071429  76.5835336538461 37.72265625  C 76.8611778846154 38.0139508928571  77 38.3861607142857  77 38.8392857142857  L 77 48.1607142857143  C 77 48.6138392857143  76.8611778846154 48.9860491071429  76.5835336538461 49.27734375  C 76.3058894230769 49.5686383928571  75.9511217948718 49.7142857142857  75.5192307692308 49.7142857142857  L 71.0769230769231 49.7142857142857  L 71.0769230769231 55.9285714285714  L 75.5192307692308 55.9285714285714  C 75.9511217948718 55.9285714285714  76.3058894230769 56.07421875  76.5835336538461 56.3655133928571  Z " fill-rule="nonzero" fill="#ffffff" stroke="none" transform="matrix(1 0 0 1 1022 0 )" />
  </g>
</svg>